<svg xmlns="http://www.w3.org/2000/svg" xmlns:xlink="http://www.w3.org/1999/xlink" width="515" zoomAndPan="magnify" viewBox="0 0 386.25 115.499997" height="154" preserveAspectRatio="xMidYMid meet" version="1.0"><defs><g/><clipPath id="6c3e90ebf9"><path d="M 0.460938 22.691406 L 191.632812 22.691406 L 191.632812 92 L 0.460938 92 Z M 0.460938 22.691406 " clip-rule="nonzero"/></clipPath><clipPath id="fc5ec983d9"><path d="M 356 11 L 367 11 L 367 26 L 356 26 Z M 356 11 " clip-rule="nonzero"/></clipPath><clipPath id="f227d59c64"><path d="M 381.109375 39.664062 L 361.917969 44.976562 L 353.503906 14.589844 L 372.695312 9.277344 Z M 381.109375 39.664062 " clip-rule="nonzero"/></clipPath><clipPath id="46a5d421ff"><path d="M 381.109375 39.664062 L 361.917969 44.976562 L 353.503906 14.589844 L 372.695312 9.277344 Z M 381.109375 39.664062 " clip-rule="nonzero"/></clipPath><clipPath id="bc0cd80393"><path d="M 362 34 L 378 34 L 378 41 L 362 41 Z M 362 34 " clip-rule="nonzero"/></clipPath><clipPath id="b1276e8303"><path d="M 381.109375 39.664062 L 361.917969 44.976562 L 353.503906 14.589844 L 372.695312 9.277344 Z M 381.109375 39.664062 " clip-rule="nonzero"/></clipPath><clipPath id="8783563eab"><path d="M 381.109375 39.664062 L 361.917969 44.976562 L 353.503906 14.589844 L 372.695312 9.277344 Z M 381.109375 39.664062 " clip-rule="nonzero"/></clipPath><clipPath id="bb12176da1"><path d="M 362 21 L 377 21 L 377 30 L 362 30 Z M 362 21 " clip-rule="nonzero"/></clipPath><clipPath id="7a1c8f60f4"><path d="M 381.109375 39.664062 L 361.917969 44.976562 L 353.503906 14.589844 L 372.695312 9.277344 Z M 381.109375 39.664062 " clip-rule="nonzero"/></clipPath><clipPath id="1119803c5e"><path d="M 381.109375 39.664062 L 361.917969 44.976562 L 353.503906 14.589844 L 372.695312 9.277344 Z M 381.109375 39.664062 " clip-rule="nonzero"/></clipPath><clipPath id="d18e1bc34f"><path d="M 335 23 L 343 23 L 343 32 L 335 32 Z M 335 23 " clip-rule="nonzero"/></clipPath><clipPath id="7843bc2154"><path d="M 354.015625 6.355469 L 361.152344 24.949219 L 342.5625 32.082031 L 335.425781 13.492188 Z M 354.015625 6.355469 " clip-rule="nonzero"/></clipPath><clipPath id="f3494fbfeb"><path d="M 354.015625 6.355469 L 361.152344 24.949219 L 331.714844 36.242188 L 324.582031 17.652344 Z M 354.015625 6.355469 " clip-rule="nonzero"/></clipPath><clipPath id="3ec571c034"><path d="M 350 10 L 356 10 L 356 26 L 350 26 Z M 350 10 " clip-rule="nonzero"/></clipPath><clipPath id="d6b08a54ab"><path d="M 354.015625 6.355469 L 361.152344 24.949219 L 342.5625 32.082031 L 335.425781 13.492188 Z M 354.015625 6.355469 " clip-rule="nonzero"/></clipPath><clipPath id="4eec669fd1"><path d="M 354.015625 6.355469 L 361.152344 24.949219 L 331.714844 36.242188 L 324.582031 17.652344 Z M 354.015625 6.355469 " clip-rule="nonzero"/></clipPath><clipPath id="812adc9f4e"><path d="M 336 12 L 346 12 L 346 26 L 336 26 Z M 336 12 " clip-rule="nonzero"/></clipPath><clipPath id="aceefc15c3"><path d="M 354.015625 6.355469 L 361.152344 24.949219 L 342.5625 32.082031 L 335.425781 13.492188 Z M 354.015625 6.355469 " clip-rule="nonzero"/></clipPath><clipPath id="76efbb6d6b"><path d="M 354.015625 6.355469 L 361.152344 24.949219 L 331.714844 36.242188 L 324.582031 17.652344 Z M 354.015625 6.355469 " clip-rule="nonzero"/></clipPath></defs><path stroke-linecap="butt" transform="matrix(0.746767, 0, 0, 0.746767, 68.701625, 39.429308)" fill="none" stroke-linejoin="miter" d="M 76.922107 45.294704 C 76.922107 46.419343 77.052879 47.507367 77.319654 48.553543 C 77.586429 49.599719 78.031054 50.541277 78.65876 51.367756 C 79.281235 52.194236 80.107714 52.853327 81.138197 53.334568 C 82.173912 53.821039 83.455477 54.06166 84.982894 54.06166 C 86.515542 54.06166 87.797108 53.821039 88.827592 53.334568 C 89.858075 52.853327 90.689785 52.194236 91.31226 51.367756 C 91.939966 50.541277 92.38459 49.599719 92.646134 48.553543 C 92.912909 47.507367 93.048912 46.419343 93.048912 45.294704 L 93.048912 -2.233077 C 93.048912 -3.326331 92.912909 -4.414354 92.646134 -5.491916 C 92.38459 -6.569477 91.939966 -7.531959 91.31226 -8.374131 C 90.689785 -9.216303 89.858075 -9.906779 88.827592 -10.435098 C 87.797108 -10.968648 86.515542 -11.235423 84.982894 -11.235423 C 83.455477 -11.235423 82.173912 -10.968648 81.138197 -10.435098 C 80.107714 -9.906779 79.281235 -9.216303 78.65876 -8.374131 C 78.031054 -7.531959 77.586429 -6.569477 77.319654 -5.491916 C 77.052879 -4.414354 76.922107 -3.326331 76.922107 -2.233077 Z M 94.968645 45.294704 C 94.968645 46.670426 94.796026 47.999069 94.450788 49.280635 C 94.110781 50.562201 93.545846 51.697302 92.766445 52.680707 C 91.981813 53.664113 90.951329 54.453976 89.669763 55.045065 C 88.388198 55.641386 86.829395 55.939546 84.982894 55.939546 C 83.078854 55.939546 81.483435 55.641386 80.20187 55.045065 C 78.920304 54.453976 77.900282 53.664113 77.131343 52.680707 C 76.367634 51.697302 75.818392 50.562201 75.494077 49.280635 C 75.164531 47.999069 75.002374 46.670426 75.002374 45.294704 L 75.002374 -2.233077 C 75.002374 -3.577413 75.164531 -4.906057 75.494077 -6.219008 C 75.818392 -7.531959 76.367634 -8.703676 77.131343 -9.73416 C 77.900282 -10.764643 78.920304 -11.596353 80.20187 -12.218828 C 81.483435 -12.841303 83.078854 -13.155156 84.982894 -13.155156 C 86.829395 -13.155156 88.388198 -12.841303 89.669763 -12.218828 C 90.951329 -11.596353 91.981813 -10.764643 92.766445 -9.73416 C 93.545846 -8.703676 94.110781 -7.531959 94.450788 -6.219008 C 94.796026 -4.906057 94.968645 -3.577413 94.968645 -2.233077 Z M 114.458907 53.920426 C 114.647218 54.171508 114.741374 54.438283 114.741374 54.720751 C 114.741374 55.060758 114.621064 55.353687 114.390905 55.583846 C 114.155516 55.819236 113.867817 55.939546 113.522579 55.939546 C 113.177341 55.939546 112.879181 55.819236 112.633329 55.583846 C 112.382247 55.353687 112.256706 55.060758 112.256706 54.720751 C 112.256706 54.438283 112.350862 54.171508 112.539173 53.920426 L 112.539173 -12.218828 L 122.802161 -12.218828 C 124.711433 -12.218828 126.296389 -11.904975 127.562263 -11.282501 C 128.828136 -10.654795 129.848157 -9.828316 130.632789 -8.797832 C 131.412191 -7.767349 131.966664 -6.595632 132.296209 -5.282681 C 132.625755 -3.96973 132.787912 -2.625393 132.787912 -1.249672 L 132.787912 25.140121 C 132.787912 26.515843 132.625755 27.844486 132.296209 29.126052 C 131.966664 30.407618 131.412191 31.537488 130.632789 32.520894 C 129.848157 33.50953 128.828136 34.299393 127.562263 34.890483 C 126.296389 35.486803 124.711433 35.779732 122.802161 35.779732 L 114.458907 35.779732 Z M 122.802161 33.859999 C 124.334809 33.859999 125.616375 33.619379 126.646858 33.132907 C 127.677342 32.646435 128.503821 31.997806 129.131527 31.187019 C 129.754002 30.376233 130.203857 29.445136 130.465401 28.39896 C 130.732176 27.352784 130.868179 26.26476 130.868179 25.140121 L 130.868179 -1.249672 C 130.868179 -2.342926 130.732176 -3.430949 130.465401 -4.50851 C 130.203857 -5.586072 129.754002 -6.553785 129.131527 -7.411649 C 128.503821 -8.274744 127.677342 -8.970451 126.646858 -9.49877 C 125.616375 -10.03232 124.334809 -10.299095 122.802161 -10.299095 L 114.458907 -10.299095 L 114.458907 33.859999 Z M 166.762482 53.078254 C 167.044949 52.889943 167.327417 52.795787 167.604654 52.795787 C 167.949892 52.795787 168.248052 52.921328 168.499134 53.17241 C 168.744986 53.423492 168.870527 53.716422 168.870527 54.06166 C 168.870527 54.406898 168.744986 54.694596 168.499134 54.929986 C 168.248052 55.165376 167.949892 55.280455 167.604654 55.280455 C 167.327417 55.280455 167.044949 55.186299 166.762482 54.997988 L 148.904255 54.997988 L 148.904255 -1.343827 C 148.904255 -2.719549 149.061182 -4.053424 149.369804 -5.350682 C 149.683657 -6.64794 150.232899 -7.803965 151.0123 -8.818756 C 151.791702 -9.833547 152.832647 -10.654795 154.129905 -11.282501 C 155.427164 -11.904975 157.043506 -12.218828 158.978931 -12.218828 L 166.762482 -12.218828 C 167.044949 -12.40714 167.327417 -12.501296 167.604654 -12.501296 C 167.949892 -12.501296 168.248052 -12.375755 168.499134 -12.124672 C 168.744986 -11.87359 168.870527 -11.580661 168.870527 -11.235423 C 168.870527 -10.890185 168.744986 -10.592024 168.499134 -10.346173 C 168.248052 -10.095091 167.949892 -9.96955 167.604654 -9.96955 C 167.358802 -9.96955 167.076335 -10.079398 166.762482 -10.299095 L 158.978931 -10.299095 C 157.388744 -10.299095 156.065331 -10.037551 155.019155 -9.524925 C 153.972979 -9.007068 153.136038 -8.327053 152.513563 -7.484881 C 151.885857 -6.64271 151.451694 -5.680227 151.200612 -4.602666 C 150.94953 -3.525105 150.823989 -2.437082 150.823989 -1.343827 L 150.823989 6.999427 L 163.995346 6.999427 C 164.277814 6.811115 164.560281 6.71696 164.842749 6.71696 C 165.182756 6.71696 165.480916 6.83727 165.731998 7.072659 C 165.983081 7.302818 166.108622 7.595747 166.108622 7.935755 C 166.108622 8.280993 165.983081 8.579153 165.731998 8.830235 C 165.480916 9.076087 165.182756 9.201628 164.842749 9.201628 C 164.560281 9.201628 164.277814 9.107472 163.995346 8.924391 L 150.823989 8.924391 L 150.823989 53.078254 Z M 204.205125 53.920426 C 204.393437 54.171508 204.487593 54.438283 204.487593 54.720751 C 204.487593 55.060758 204.372513 55.353687 204.137124 55.583846 C 203.901734 55.819236 203.614036 55.939546 203.268798 55.939546 C 202.923559 55.939546 202.63063 55.819236 202.379548 55.583846 C 202.128466 55.353687 202.002924 55.060758 202.002924 54.720751 C 202.002924 54.438283 202.09708 54.171508 202.285392 53.920426 L 202.285392 -9.49877 L 186.158587 7.658518 L 186.158587 53.920426 C 186.346899 54.171508 186.441055 54.438283 186.441055 54.720751 C 186.441055 55.060758 186.325975 55.353687 186.090586 55.583846 C 185.855196 55.819236 185.567498 55.939546 185.222259 55.939546 C 184.877021 55.939546 184.578861 55.819236 184.33301 55.583846 C 184.081927 55.353687 183.956386 55.060758 183.956386 54.720751 C 183.956386 54.438283 184.050542 54.171508 184.238854 53.920426 L 184.238854 -11.047111 C 184.050542 -11.329579 183.956386 -11.606815 183.956386 -11.889283 C 183.956386 -12.234521 184.081927 -12.532681 184.33301 -12.783763 C 184.578861 -13.029615 184.877021 -13.155156 185.222259 -13.155156 C 185.567498 -13.155156 185.855196 -13.029615 186.090586 -12.783763 C 186.325975 -12.532681 186.441055 -12.234521 186.441055 -11.889283 C 186.441055 -11.606815 186.346899 -11.329579 186.158587 -11.047111 L 186.158587 4.985538 L 202.285392 -12.218828 L 204.205125 -12.218828 Z M 242.024392 44.640844 C 242.024392 47.920606 241.171758 50.468045 239.471722 52.283161 C 237.766455 54.093045 235.260863 54.997988 231.944485 54.997988 L 222.058121 54.997988 L 222.058121 -12.218828 L 231.761404 -12.218828 C 233.571289 -12.218828 235.077783 -11.952053 236.280885 -11.423734 C 237.483988 -10.890185 238.44647 -10.173554 239.1631 -9.263381 C 239.884962 -8.358438 240.397588 -7.29657 240.711441 -6.077774 C 241.025294 -4.858979 241.18222 -3.577413 241.18222 -2.233077 C 241.18222 -1.202594 241.103757 -0.17211 240.946831 0.858373 C 240.789904 1.888857 240.533591 2.861801 240.17266 3.766743 C 239.811729 4.671685 239.330488 5.492933 238.718475 6.225257 C 238.111693 6.962811 237.353216 7.532977 236.448273 7.935755 C 237.478757 8.406534 238.347083 8.981931 239.048021 9.672407 C 239.748959 10.357652 240.329587 11.131823 240.784673 11.989687 C 241.234529 12.852783 241.558844 13.78911 241.741924 14.803901 C 241.930236 15.818692 242.024392 16.859637 242.024392 17.921506 Z M 231.944485 53.078254 C 234.664543 53.078254 236.704586 52.319777 238.064615 50.802821 C 239.424644 49.291097 240.104659 47.203975 240.104659 44.546688 L 240.104659 17.921506 C 240.104659 16.796866 239.968656 15.693151 239.707112 14.615589 C 239.440337 13.538028 238.98525 12.575546 238.347083 11.733374 C 237.703685 10.891202 236.84582 10.211188 235.768259 9.693331 C 234.690697 9.180704 233.351592 8.924391 231.761404 8.924391 L 223.977854 8.924391 L 223.977854 53.078254 Z M 231.761404 6.999427 C 233.288821 6.999427 234.539002 6.732652 235.511946 6.204333 C 236.479659 5.670783 237.243367 4.969845 237.808302 4.096288 C 238.368006 3.2175 238.749861 2.228864 238.953865 1.114686 C 239.157869 0.00573973 239.257256 -1.108438 239.257256 -2.233077 C 239.257256 -3.326331 239.136946 -4.367276 238.885864 -5.350682 C 238.634781 -6.334088 238.221542 -7.197183 237.640914 -7.929506 C 237.065517 -8.661829 236.291347 -9.242457 235.323634 -9.666159 C 234.35069 -10.084629 233.16328 -10.299095 231.761404 -10.299095 L 223.977854 -10.299095 L 223.977854 6.999427 Z M 260.578325 45.294704 C 260.578325 46.419343 260.709098 47.507367 260.975872 48.553543 C 261.242647 49.599719 261.687272 50.541277 262.314978 51.367756 C 262.937453 52.194236 263.763932 52.853327 264.794415 53.334568 C 265.83013 53.821039 267.111695 54.06166 268.639113 54.06166 C 270.171761 54.06166 271.453326 53.821039 272.48381 53.334568 C 273.514293 52.853327 274.346003 52.194236 274.968478 51.367756 C 275.596184 50.541277 276.040809 49.599719 276.302353 48.553543 C 276.569128 47.507367 276.70513 46.419343 276.70513 45.294704 L 276.70513 -2.233077 C 276.70513 -3.326331 276.569128 -4.414354 276.302353 -5.491916 C 276.040809 -6.569477 275.596184 -7.531959 274.968478 -8.374131 C 274.346003 -9.216303 273.514293 -9.906779 272.48381 -10.435098 C 271.453326 -10.968648 270.171761 -11.235423 268.639113 -11.235423 C 267.111695 -11.235423 265.83013 -10.968648 264.794415 -10.435098 C 263.763932 -9.906779 262.937453 -9.216303 262.314978 -8.374131 C 261.687272 -7.531959 261.242647 -6.569477 260.975872 -5.491916 C 260.709098 -4.414354 260.578325 -3.326331 260.578325 -2.233077 Z M 278.624864 45.294704 C 278.624864 46.670426 278.452245 47.999069 278.107006 49.280635 C 277.766999 50.562201 277.202064 51.697302 276.422663 52.680707 C 275.638031 53.664113 274.607547 54.453976 273.325982 55.045065 C 272.044416 55.641386 270.485613 55.939546 268.639113 55.939546 C 266.735072 55.939546 265.139653 55.641386 263.858088 55.045065 C 262.576522 54.453976 261.5565 53.664113 260.787561 52.680707 C 260.023852 51.697302 259.47461 50.562201 259.150295 49.280635 C 258.82075 47.999069 258.658592 46.670426 258.658592 45.294704 L 258.658592 -2.233077 C 258.658592 -3.577413 258.82075 -4.906057 259.150295 -6.219008 C 259.47461 -7.531959 260.023852 -8.703676 260.787561 -9.73416 C 261.5565 -10.764643 262.576522 -11.596353 263.858088 -12.218828 C 265.139653 -12.841303 266.735072 -13.155156 268.639113 -13.155156 C 270.485613 -13.155156 272.044416 -12.841303 273.325982 -12.218828 C 274.607547 -11.596353 275.638031 -10.764643 276.422663 -9.73416 C 277.202064 -8.703676 277.766999 -7.531959 278.107006 -6.219008 C 278.452245 -4.906057 278.624864 -3.577413 278.624864 -2.233077 Z M 297.832657 45.294704 C 297.832657 46.419343 297.96866 47.507367 298.235435 48.553543 C 298.496979 49.599719 298.941604 50.541277 299.56931 51.367756 C 300.191784 52.194236 301.023494 52.853327 302.053978 53.334568 C 303.084461 53.821039 304.366027 54.06166 305.898675 54.06166 C 307.426092 54.06166 308.707658 53.821039 309.738141 53.334568 C 310.773856 52.853327 311.600335 52.194236 312.22281 51.367756 C 312.850515 50.541277 313.29514 49.599719 313.561915 48.553543 C 313.82869 47.507367 313.959462 46.419343 313.959462 45.294704 L 313.959462 -2.233077 C 313.959462 -3.326331 313.82869 -4.414354 313.561915 -5.491916 C 313.29514 -6.569477 312.850515 -7.531959 312.22281 -8.374131 C 311.600335 -9.216303 310.773856 -9.906779 309.738141 -10.435098 C 308.707658 -10.968648 307.426092 -11.235423 305.898675 -11.235423 C 304.366027 -11.235423 303.084461 -10.968648 302.053978 -10.435098 C 301.023494 -9.906779 300.191784 -9.216303 299.56931 -8.374131 C 298.941604 -7.531959 298.496979 -6.569477 298.235435 -5.491916 C 297.96866 -4.414354 297.832657 -3.326331 297.832657 -2.233077 Z M 315.879195 45.294704 C 315.879195 46.670426 315.711807 47.999069 315.366569 49.280635 C 315.021331 50.562201 314.461627 51.697302 313.676995 52.680707 C 312.897593 53.664113 311.86711 54.453976 310.585544 55.045065 C 309.303978 55.641386 307.739945 55.939546 305.898675 55.939546 C 303.989404 55.939546 302.399216 55.641386 301.11765 55.045065 C 299.836084 54.453976 298.810832 53.664113 298.047123 52.680707 C 297.278184 51.697302 296.734172 50.562201 296.404627 49.280635 C 296.075081 47.999069 295.912924 46.670426 295.912924 45.294704 L 295.912924 -2.233077 C 295.912924 -3.577413 296.075081 -4.906057 296.404627 -6.219008 C 296.734172 -7.531959 297.278184 -8.703676 298.047123 -9.73416 C 298.810832 -10.764643 299.836084 -11.596353 301.11765 -12.218828 C 302.399216 -12.841303 303.989404 -13.155156 305.898675 -13.155156 C 307.739945 -13.155156 309.303978 -12.841303 310.585544 -12.218828 C 311.86711 -11.596353 312.897593 -10.764643 313.676995 -9.73416 C 314.461627 -8.703676 315.021331 -7.531959 315.366569 -6.219008 C 315.711807 -4.906057 315.879195 -3.577413 315.879195 -2.233077 Z M 353.421225 53.920426 C 353.604306 54.171508 353.698462 54.438283 353.698462 54.720751 C 353.698462 55.060758 353.583383 55.353687 353.347993 55.583846 C 353.112603 55.819236 352.824905 55.939546 352.479667 55.939546 C 352.13966 55.939546 351.841499 55.819236 351.590417 55.583846 C 351.339335 55.353687 351.213794 55.060758 351.213794 54.720751 C 351.213794 54.438283 351.30795 54.171508 351.496261 53.920426 L 351.496261 17.82735 C 351.496261 16.734096 351.365489 15.646073 351.098714 14.568511 C 350.831939 13.49095 350.387315 12.533699 349.76484 11.686296 C 349.137134 10.844124 348.310655 10.153648 347.280172 9.625329 C 346.244457 9.091779 344.968122 8.830235 343.435474 8.830235 L 335.369456 8.830235 L 335.369456 53.920426 C 335.557768 54.171508 335.651924 54.438283 335.651924 54.720751 C 335.651924 55.060758 335.536845 55.353687 335.301455 55.583846 C 335.066065 55.819236 334.778367 55.939546 334.433129 55.939546 C 334.093122 55.939546 333.794961 55.819236 333.543879 55.583846 C 333.292797 55.353687 333.167256 55.060758 333.167256 54.720751 C 333.167256 54.438283 333.261412 54.171508 333.449723 53.920426 L 333.449723 -11.047111 C 333.261412 -11.329579 333.167256 -11.606815 333.167256 -11.889283 C 333.167256 -12.234521 333.292797 -12.532681 333.543879 -12.783763 C 333.794961 -13.029615 334.093122 -13.155156 334.433129 -13.155156 C 334.778367 -13.155156 335.066065 -13.029615 335.301455 -12.783763 C 335.536845 -12.532681 335.651924 -12.234521 335.651924 -11.889283 C 335.651924 -11.606815 335.557768 -11.329579 335.369456 -11.047111 L 335.369456 6.999427 L 350.748245 -11.795127 L 350.748245 -11.889283 C 350.748245 -12.234521 350.863325 -12.532681 351.098714 -12.783763 C 351.334104 -13.029615 351.621802 -13.155156 351.967041 -13.155156 C 352.307048 -13.155156 352.605208 -13.029615 352.85629 -12.783763 C 353.107373 -12.532681 353.232914 -12.234521 353.232914 -11.889283 C 353.232914 -11.606815 353.128296 -11.350502 352.924292 -11.115112 C 352.725518 -10.884954 352.463974 -10.733258 352.155352 -10.670488 L 337.759969 6.999427 L 343.435474 6.999427 C 345.276744 6.999427 346.840778 7.31328 348.122343 7.935755 C 349.403909 8.56346 350.434393 9.384709 351.213794 10.399499 C 351.998426 11.41429 352.55813 12.575546 352.903368 13.888497 C 353.248606 15.201448 353.421225 16.545784 353.421225 17.921506 Z M 389.221372 45.294704 C 389.221372 46.670426 389.048753 47.999069 388.708746 49.280635 C 388.363508 50.562201 387.798573 51.697302 387.019172 52.680707 C 386.23977 53.664113 385.204056 54.453976 383.92249 55.045065 C 382.646155 55.641386 381.050737 55.939546 379.141465 55.939546 C 377.362966 55.939546 375.861703 55.672771 374.642908 55.139221 C 373.424113 54.610902 372.419784 53.899503 371.619459 53.010253 C 370.824365 52.115772 370.238507 51.080058 369.861883 49.892648 C 369.48526 48.705238 369.255101 47.47075 369.160945 46.189185 C 369.066789 46.063643 368.993557 45.92241 368.946479 45.765483 C 368.899401 45.608557 368.878478 45.45163 368.878478 45.294704 C 368.878478 44.954697 369.004019 44.661767 369.255101 44.431609 C 369.500952 44.196219 369.799113 44.075909 370.144351 44.075909 C 370.489589 44.075909 370.777287 44.196219 371.012677 44.431609 C 371.242836 44.661767 371.363146 44.954697 371.363146 45.294704 C 371.363146 45.45163 371.336991 45.608557 371.289914 45.765483 C 371.242836 45.92241 371.174834 46.063643 371.080678 46.189185 C 371.112064 47.251053 371.284683 48.255382 371.598536 49.212634 C 371.907157 50.164654 372.388398 51.001595 373.026566 51.718225 C 373.664733 52.440087 374.485982 53.010253 375.48508 53.428723 C 376.489409 53.852425 377.708204 54.06166 379.141465 54.06166 C 380.674113 54.06166 381.966141 53.821039 383.012317 53.334568 C 384.058493 52.853327 384.895434 52.194236 385.517909 51.367756 C 386.145614 50.541277 386.59547 49.599719 386.877938 48.553543 C 387.160405 47.507367 387.301639 46.419343 387.301639 45.294704 L 387.301639 33.295064 C 387.301639 31.673491 386.977324 30.114689 386.339157 28.634349 C 385.70099 27.148779 384.785586 25.861983 383.598176 24.763498 L 372.346551 14.782977 C 371.56715 14.092501 370.939445 13.381101 370.473896 12.648778 C 370.003117 11.916455 369.642186 11.189362 369.396335 10.467501 C 369.145253 9.75087 368.977864 9.023778 368.899401 8.291455 C 368.820938 7.5539 368.784322 6.811115 368.784322 6.063099 L 368.784322 -2.233077 C 368.784322 -3.577413 368.956941 -4.906057 369.302179 -6.219008 C 369.642186 -7.531959 370.207121 -8.703676 370.986522 -9.73416 C 371.771155 -10.764643 372.801638 -11.596353 374.083204 -12.218828 C 375.36477 -12.841303 376.954957 -13.155156 378.864229 -13.155156 C 380.642728 -13.155156 382.149222 -12.872688 383.38371 -12.312984 C 384.618197 -11.748049 385.627757 -11.000033 386.407159 -10.063705 C 387.191791 -9.127378 387.777649 -8.055047 388.164734 -6.851945 C 388.55705 -5.648842 388.781978 -4.3882 388.844749 -3.08048 C 388.938905 -2.986324 389.012137 -2.860783 389.059215 -2.703856 C 389.106293 -2.54693 389.127216 -2.390004 389.127216 -2.233077 C 389.127216 -1.89307 389.012137 -1.59491 388.776747 -1.343827 C 388.541358 -1.092745 388.253659 -0.967204 387.908421 -0.967204 C 387.563183 -0.967204 387.270254 -1.092745 387.019172 -1.343827 C 386.768089 -1.59491 386.642548 -1.89307 386.642548 -2.233077 C 386.642548 -2.54693 386.736704 -2.798012 386.925016 -2.986324 C 386.862245 -4.016807 386.684395 -5.021137 386.386235 -6.009773 C 386.088075 -6.993179 385.622526 -7.877197 384.979128 -8.656599 C 384.340961 -9.436 383.519712 -10.063705 382.520614 -10.529254 C 381.516285 -11.000033 380.29749 -11.235423 378.864229 -11.235423 C 377.331581 -11.235423 376.044784 -10.968648 374.993377 -10.435098 C 373.947201 -9.906779 373.11026 -9.216303 372.487785 -8.374131 C 371.86008 -7.531959 371.410224 -6.569477 371.127756 -5.491916 C 370.845289 -4.414354 370.704055 -3.326331 370.704055 -2.233077 L 370.704055 6.063099 C 370.766825 7.658518 371.012677 9.070856 371.431147 10.305344 C 371.854849 11.539831 372.613326 12.638316 373.70658 13.61126 L 385.005283 23.59178 C 386.689626 25.155814 387.814265 26.766925 388.3792 28.419883 C 388.938905 30.078072 389.221372 31.704876 389.221372 33.295064 Z M 389.221372 45.294704 " stroke="#b44c0c" stroke-width="4.08" stroke-opacity="1" stroke-miterlimit="4"/><g fill="#b44c0c" fill-opacity="1"><g transform="translate(121.838778, 80.501503)"><g><path d="M 4.3125 -7.25 C 4.3125 -6.40625 4.410156 -5.59375 4.609375 -4.8125 C 4.804688 -4.03125 5.132812 -3.328125 5.59375 -2.703125 C 6.0625 -2.085938 6.679688 -1.597656 7.453125 -1.234375 C 8.222656 -0.878906 9.179688 -0.703125 10.328125 -0.703125 C 11.472656 -0.703125 12.425781 -0.878906 13.1875 -1.234375 C 13.957031 -1.597656 14.578125 -2.085938 15.046875 -2.703125 C 15.515625 -3.328125 15.847656 -4.03125 16.046875 -4.8125 C 16.242188 -5.59375 16.34375 -6.40625 16.34375 -7.25 L 16.34375 -42.734375 C 16.34375 -43.554688 16.242188 -44.367188 16.046875 -45.171875 C 15.847656 -45.972656 15.515625 -46.6875 15.046875 -47.3125 C 14.578125 -47.945312 13.957031 -48.460938 13.1875 -48.859375 C 12.425781 -49.253906 11.472656 -49.453125 10.328125 -49.453125 C 9.179688 -49.453125 8.222656 -49.253906 7.453125 -48.859375 C 6.679688 -48.460938 6.0625 -47.945312 5.59375 -47.3125 C 5.132812 -46.6875 4.804688 -45.972656 4.609375 -45.171875 C 4.410156 -44.367188 4.3125 -43.554688 4.3125 -42.734375 Z M 17.78125 -7.25 C 17.78125 -6.21875 17.648438 -5.222656 17.390625 -4.265625 C 17.140625 -3.304688 16.722656 -2.457031 16.140625 -1.71875 C 15.554688 -0.988281 14.785156 -0.40625 13.828125 0.03125 C 12.867188 0.476562 11.703125 0.703125 10.328125 0.703125 C 8.898438 0.703125 7.707031 0.476562 6.75 0.03125 C 5.800781 -0.40625 5.039062 -0.988281 4.46875 -1.71875 C 3.894531 -2.457031 3.484375 -3.304688 3.234375 -4.265625 C 2.992188 -5.222656 2.875 -6.21875 2.875 -7.25 L 2.875 -42.734375 C 2.875 -43.742188 2.992188 -44.738281 3.234375 -45.71875 C 3.484375 -46.695312 3.894531 -47.570312 4.46875 -48.34375 C 5.039062 -49.113281 5.800781 -49.726562 6.75 -50.1875 C 7.707031 -50.65625 8.898438 -50.890625 10.328125 -50.890625 C 11.703125 -50.890625 12.867188 -50.65625 13.828125 -50.1875 C 14.785156 -49.726562 15.554688 -49.113281 16.140625 -48.34375 C 16.722656 -47.570312 17.140625 -46.695312 17.390625 -45.71875 C 17.648438 -44.738281 17.78125 -43.742188 17.78125 -42.734375 Z M 17.78125 -7.25 "/></g></g></g><g fill="#b44c0c" fill-opacity="1"><g transform="translate(149.660522, 80.501503)"><g><path d="M 4.515625 -0.8125 C 4.648438 -0.625 4.71875 -0.421875 4.71875 -0.203125 C 4.71875 0.046875 4.628906 0.257812 4.453125 0.4375 C 4.285156 0.613281 4.070312 0.703125 3.8125 0.703125 C 3.5625 0.703125 3.34375 0.613281 3.15625 0.4375 C 2.96875 0.257812 2.875 0.046875 2.875 -0.203125 C 2.875 -0.421875 2.941406 -0.625 3.078125 -0.8125 L 3.078125 -50.1875 L 10.75 -50.1875 C 12.164062 -50.1875 13.347656 -49.953125 14.296875 -49.484375 C 15.242188 -49.023438 16.007812 -48.410156 16.59375 -47.640625 C 17.175781 -46.867188 17.585938 -45.992188 17.828125 -45.015625 C 18.078125 -44.035156 18.203125 -43.03125 18.203125 -42 L 18.203125 -22.296875 C 18.203125 -21.265625 18.078125 -20.269531 17.828125 -19.3125 C 17.585938 -18.363281 17.175781 -17.519531 16.59375 -16.78125 C 16.007812 -16.050781 15.242188 -15.460938 14.296875 -15.015625 C 13.347656 -14.566406 12.164062 -14.34375 10.75 -14.34375 L 4.515625 -14.34375 Z M 10.75 -15.78125 C 11.894531 -15.78125 12.847656 -15.960938 13.609375 -16.328125 C 14.378906 -16.691406 15 -17.175781 15.46875 -17.78125 C 15.9375 -18.382812 16.269531 -19.078125 16.46875 -19.859375 C 16.664062 -20.640625 16.765625 -21.453125 16.765625 -22.296875 L 16.765625 -42 C 16.765625 -42.820312 16.664062 -43.632812 16.46875 -44.4375 C 16.269531 -45.238281 15.9375 -45.957031 15.46875 -46.59375 C 15 -47.238281 14.378906 -47.757812 13.609375 -48.15625 C 12.847656 -48.5625 11.894531 -48.765625 10.75 -48.765625 L 4.515625 -48.765625 L 4.515625 -15.78125 Z M 10.75 -15.78125 "/></g></g></g><g fill="#b44c0c" fill-opacity="1"><g transform="translate(176.887185, 80.501503)"><g><path d="M 16.34375 -1.4375 C 16.550781 -1.570312 16.765625 -1.640625 16.984375 -1.640625 C 17.234375 -1.640625 17.453125 -1.546875 17.640625 -1.359375 C 17.828125 -1.171875 17.921875 -0.953125 17.921875 -0.703125 C 17.921875 -0.441406 17.828125 -0.222656 17.640625 -0.046875 C 17.453125 0.117188 17.234375 0.203125 16.984375 0.203125 C 16.765625 0.203125 16.550781 0.132812 16.34375 0 L 3.015625 0 L 3.015625 -42.078125 C 3.015625 -43.097656 3.128906 -44.09375 3.359375 -45.0625 C 3.585938 -46.03125 3.992188 -46.894531 4.578125 -47.65625 C 5.160156 -48.414062 5.9375 -49.023438 6.90625 -49.484375 C 7.875 -49.953125 9.082031 -50.1875 10.53125 -50.1875 L 16.34375 -50.1875 C 16.550781 -50.332031 16.765625 -50.40625 16.984375 -50.40625 C 17.234375 -50.40625 17.453125 -50.3125 17.640625 -50.125 C 17.828125 -49.9375 17.921875 -49.710938 17.921875 -49.453125 C 17.921875 -49.203125 17.828125 -48.984375 17.640625 -48.796875 C 17.453125 -48.609375 17.234375 -48.515625 16.984375 -48.515625 C 16.796875 -48.515625 16.582031 -48.597656 16.34375 -48.765625 L 10.53125 -48.765625 C 9.34375 -48.765625 8.359375 -48.570312 7.578125 -48.1875 C 6.796875 -47.800781 6.171875 -47.289062 5.703125 -46.65625 C 5.234375 -46.03125 4.90625 -45.3125 4.71875 -44.5 C 4.539062 -43.695312 4.453125 -42.890625 4.453125 -42.078125 L 4.453125 -35.84375 L 14.28125 -35.84375 C 14.488281 -35.976562 14.695312 -36.046875 14.90625 -36.046875 C 15.164062 -36.046875 15.390625 -35.957031 15.578125 -35.78125 C 15.765625 -35.613281 15.859375 -35.398438 15.859375 -35.140625 C 15.859375 -34.890625 15.765625 -34.671875 15.578125 -34.484375 C 15.390625 -34.296875 15.164062 -34.203125 14.90625 -34.203125 C 14.695312 -34.203125 14.488281 -34.269531 14.28125 -34.40625 L 4.453125 -34.40625 L 4.453125 -1.4375 Z M 16.34375 -1.4375 "/></g></g></g><g fill="#b44c0c" fill-opacity="1"><g transform="translate(203.203726, 80.501503)"><g><path d="M 17.984375 -0.8125 C 18.128906 -0.625 18.203125 -0.421875 18.203125 -0.203125 C 18.203125 0.046875 18.113281 0.257812 17.9375 0.4375 C 17.757812 0.613281 17.546875 0.703125 17.296875 0.703125 C 17.035156 0.703125 16.8125 0.613281 16.625 0.4375 C 16.4375 0.257812 16.34375 0.046875 16.34375 -0.203125 C 16.34375 -0.421875 16.414062 -0.625 16.5625 -0.8125 L 16.5625 -48.171875 L 4.515625 -35.359375 L 4.515625 -0.8125 C 4.648438 -0.625 4.71875 -0.421875 4.71875 -0.203125 C 4.71875 0.046875 4.628906 0.257812 4.453125 0.4375 C 4.285156 0.613281 4.070312 0.703125 3.8125 0.703125 C 3.5625 0.703125 3.34375 0.613281 3.15625 0.4375 C 2.96875 0.257812 2.875 0.046875 2.875 -0.203125 C 2.875 -0.421875 2.941406 -0.625 3.078125 -0.8125 L 3.078125 -49.3125 C 2.941406 -49.53125 2.875 -49.742188 2.875 -49.953125 C 2.875 -50.203125 2.96875 -50.421875 3.15625 -50.609375 C 3.34375 -50.796875 3.5625 -50.890625 3.8125 -50.890625 C 4.070312 -50.890625 4.285156 -50.796875 4.453125 -50.609375 C 4.628906 -50.421875 4.71875 -50.203125 4.71875 -49.953125 C 4.71875 -49.742188 4.648438 -49.53125 4.515625 -49.3125 L 4.515625 -37.34375 L 16.5625 -50.1875 L 17.984375 -50.1875 Z M 17.984375 -0.8125 "/></g></g></g><g fill="#b44c0c" fill-opacity="1"><g transform="translate(231.445526, 80.501503)"><g><path d="M 17.984375 -7.734375 C 17.984375 -5.285156 17.347656 -3.382812 16.078125 -2.03125 C 14.804688 -0.675781 12.9375 0 10.46875 0 L 3.078125 0 L 3.078125 -50.1875 L 10.328125 -50.1875 C 11.679688 -50.1875 12.804688 -49.988281 13.703125 -49.59375 C 14.597656 -49.195312 15.3125 -48.660156 15.84375 -47.984375 C 16.382812 -47.304688 16.769531 -46.515625 17 -45.609375 C 17.238281 -44.703125 17.359375 -43.742188 17.359375 -42.734375 C 17.359375 -41.960938 17.300781 -41.191406 17.1875 -40.421875 C 17.070312 -39.660156 16.878906 -38.941406 16.609375 -38.265625 C 16.335938 -37.585938 15.972656 -36.972656 15.515625 -36.421875 C 15.066406 -35.867188 14.503906 -35.441406 13.828125 -35.140625 C 14.597656 -34.796875 15.242188 -34.363281 15.765625 -33.84375 C 16.296875 -33.332031 16.726562 -32.753906 17.0625 -32.109375 C 17.40625 -31.472656 17.644531 -30.773438 17.78125 -30.015625 C 17.914062 -29.253906 17.984375 -28.476562 17.984375 -27.6875 Z M 10.46875 -1.4375 C 12.5 -1.4375 14.019531 -2 15.03125 -3.125 C 16.050781 -4.257812 16.5625 -5.820312 16.5625 -7.8125 L 16.5625 -27.6875 C 16.5625 -28.53125 16.460938 -29.351562 16.265625 -30.15625 C 16.066406 -30.957031 15.726562 -31.671875 15.25 -32.296875 C 14.769531 -32.929688 14.125 -33.441406 13.3125 -33.828125 C 12.507812 -34.210938 11.515625 -34.40625 10.328125 -34.40625 L 4.515625 -34.40625 L 4.515625 -1.4375 Z M 10.328125 -35.84375 C 11.472656 -35.84375 12.40625 -36.039062 13.125 -36.4375 C 13.851562 -36.832031 14.425781 -37.359375 14.84375 -38.015625 C 15.257812 -38.671875 15.539062 -39.410156 15.6875 -40.234375 C 15.84375 -41.066406 15.921875 -41.898438 15.921875 -42.734375 C 15.921875 -43.554688 15.828125 -44.332031 15.640625 -45.0625 C 15.453125 -45.800781 15.144531 -46.441406 14.71875 -46.984375 C 14.289062 -47.535156 13.710938 -47.96875 12.984375 -48.28125 C 12.265625 -48.601562 11.378906 -48.765625 10.328125 -48.765625 L 4.515625 -48.765625 L 4.515625 -35.84375 Z M 10.328125 -35.84375 "/></g></g></g><g fill="#b44c0c" fill-opacity="1"><g transform="translate(258.987238, 80.501503)"><g><path d="M 4.3125 -7.25 C 4.3125 -6.40625 4.410156 -5.59375 4.609375 -4.8125 C 4.804688 -4.03125 5.132812 -3.328125 5.59375 -2.703125 C 6.0625 -2.085938 6.679688 -1.597656 7.453125 -1.234375 C 8.222656 -0.878906 9.179688 -0.703125 10.328125 -0.703125 C 11.472656 -0.703125 12.425781 -0.878906 13.1875 -1.234375 C 13.957031 -1.597656 14.578125 -2.085938 15.046875 -2.703125 C 15.515625 -3.328125 15.847656 -4.03125 16.046875 -4.8125 C 16.242188 -5.59375 16.34375 -6.40625 16.34375 -7.25 L 16.34375 -42.734375 C 16.34375 -43.554688 16.242188 -44.367188 16.046875 -45.171875 C 15.847656 -45.972656 15.515625 -46.6875 15.046875 -47.3125 C 14.578125 -47.945312 13.957031 -48.460938 13.1875 -48.859375 C 12.425781 -49.253906 11.472656 -49.453125 10.328125 -49.453125 C 9.179688 -49.453125 8.222656 -49.253906 7.453125 -48.859375 C 6.679688 -48.460938 6.0625 -47.945312 5.59375 -47.3125 C 5.132812 -46.6875 4.804688 -45.972656 4.609375 -45.171875 C 4.410156 -44.367188 4.3125 -43.554688 4.3125 -42.734375 Z M 17.78125 -7.25 C 17.78125 -6.21875 17.648438 -5.222656 17.390625 -4.265625 C 17.140625 -3.304688 16.722656 -2.457031 16.140625 -1.71875 C 15.554688 -0.988281 14.785156 -0.40625 13.828125 0.03125 C 12.867188 0.476562 11.703125 0.703125 10.328125 0.703125 C 8.898438 0.703125 7.707031 0.476562 6.75 0.03125 C 5.800781 -0.40625 5.039062 -0.988281 4.46875 -1.71875 C 3.894531 -2.457031 3.484375 -3.304688 3.234375 -4.265625 C 2.992188 -5.222656 2.875 -6.21875 2.875 -7.25 L 2.875 -42.734375 C 2.875 -43.742188 2.992188 -44.738281 3.234375 -45.71875 C 3.484375 -46.695312 3.894531 -47.570312 4.46875 -48.34375 C 5.039062 -49.113281 5.800781 -49.726562 6.75 -50.1875 C 7.707031 -50.65625 8.898438 -50.890625 10.328125 -50.890625 C 11.703125 -50.890625 12.867188 -50.65625 13.828125 -50.1875 C 14.785156 -49.726562 15.554688 -49.113281 16.140625 -48.34375 C 16.722656 -47.570312 17.140625 -46.695312 17.390625 -45.71875 C 17.648438 -44.738281 17.78125 -43.742188 17.78125 -42.734375 Z M 17.78125 -7.25 "/></g></g></g><g fill="#b44c0c" fill-opacity="1"><g transform="translate(286.808987, 80.501503)"><g><path d="M 4.3125 -7.25 C 4.3125 -6.40625 4.410156 -5.59375 4.609375 -4.8125 C 4.804688 -4.03125 5.132812 -3.328125 5.59375 -2.703125 C 6.0625 -2.085938 6.679688 -1.597656 7.453125 -1.234375 C 8.222656 -0.878906 9.179688 -0.703125 10.328125 -0.703125 C 11.472656 -0.703125 12.425781 -0.878906 13.1875 -1.234375 C 13.957031 -1.597656 14.578125 -2.085938 15.046875 -2.703125 C 15.515625 -3.328125 15.847656 -4.03125 16.046875 -4.8125 C 16.242188 -5.59375 16.34375 -6.40625 16.34375 -7.25 L 16.34375 -42.734375 C 16.34375 -43.554688 16.242188 -44.367188 16.046875 -45.171875 C 15.847656 -45.972656 15.515625 -46.6875 15.046875 -47.3125 C 14.578125 -47.945312 13.957031 -48.460938 13.1875 -48.859375 C 12.425781 -49.253906 11.472656 -49.453125 10.328125 -49.453125 C 9.179688 -49.453125 8.222656 -49.253906 7.453125 -48.859375 C 6.679688 -48.460938 6.0625 -47.945312 5.59375 -47.3125 C 5.132812 -46.6875 4.804688 -45.972656 4.609375 -45.171875 C 4.410156 -44.367188 4.3125 -43.554688 4.3125 -42.734375 Z M 17.78125 -7.25 C 17.78125 -6.21875 17.648438 -5.222656 17.390625 -4.265625 C 17.140625 -3.304688 16.722656 -2.457031 16.140625 -1.71875 C 15.554688 -0.988281 14.785156 -0.40625 13.828125 0.03125 C 12.867188 0.476562 11.703125 0.703125 10.328125 0.703125 C 8.898438 0.703125 7.707031 0.476562 6.75 0.03125 C 5.800781 -0.40625 5.039062 -0.988281 4.46875 -1.71875 C 3.894531 -2.457031 3.484375 -3.304688 3.234375 -4.265625 C 2.992188 -5.222656 2.875 -6.21875 2.875 -7.25 L 2.875 -42.734375 C 2.875 -43.742188 2.992188 -44.738281 3.234375 -45.71875 C 3.484375 -46.695312 3.894531 -47.570312 4.46875 -48.34375 C 5.039062 -49.113281 5.800781 -49.726562 6.75 -50.1875 C 7.707031 -50.65625 8.898438 -50.890625 10.328125 -50.890625 C 11.703125 -50.890625 12.867188 -50.65625 13.828125 -50.1875 C 14.785156 -49.726562 15.554688 -49.113281 16.140625 -48.34375 C 16.722656 -47.570312 17.140625 -46.695312 17.390625 -45.71875 C 17.648438 -44.738281 17.78125 -43.742188 17.78125 -42.734375 Z M 17.78125 -7.25 "/></g></g></g><g fill="#b44c0c" fill-opacity="1"><g transform="translate(314.630737, 80.501503)"><g><path d="M 17.984375 -0.8125 C 18.128906 -0.625 18.203125 -0.421875 18.203125 -0.203125 C 18.203125 0.046875 18.113281 0.257812 17.9375 0.4375 C 17.757812 0.613281 17.546875 0.703125 17.296875 0.703125 C 17.035156 0.703125 16.8125 0.613281 16.625 0.4375 C 16.4375 0.257812 16.34375 0.046875 16.34375 -0.203125 C 16.34375 -0.421875 16.414062 -0.625 16.5625 -0.8125 L 16.5625 -27.765625 C 16.5625 -28.578125 16.460938 -29.382812 16.265625 -30.1875 C 16.066406 -30.988281 15.734375 -31.703125 15.265625 -32.328125 C 14.796875 -32.960938 14.175781 -33.476562 13.40625 -33.875 C 12.632812 -34.28125 11.675781 -34.484375 10.53125 -34.484375 L 4.515625 -34.484375 L 4.515625 -0.8125 C 4.648438 -0.625 4.71875 -0.421875 4.71875 -0.203125 C 4.71875 0.046875 4.628906 0.257812 4.453125 0.4375 C 4.285156 0.613281 4.070312 0.703125 3.8125 0.703125 C 3.5625 0.703125 3.34375 0.613281 3.15625 0.4375 C 2.96875 0.257812 2.875 0.046875 2.875 -0.203125 C 2.875 -0.421875 2.941406 -0.625 3.078125 -0.8125 L 3.078125 -49.3125 C 2.941406 -49.53125 2.875 -49.742188 2.875 -49.953125 C 2.875 -50.203125 2.96875 -50.421875 3.15625 -50.609375 C 3.34375 -50.796875 3.5625 -50.890625 3.8125 -50.890625 C 4.070312 -50.890625 4.285156 -50.796875 4.453125 -50.609375 C 4.628906 -50.421875 4.71875 -50.203125 4.71875 -49.953125 C 4.71875 -49.742188 4.648438 -49.53125 4.515625 -49.3125 L 4.515625 -35.84375 L 16 -49.875 L 16 -49.953125 C 16 -50.203125 16.082031 -50.421875 16.25 -50.609375 C 16.425781 -50.796875 16.644531 -50.890625 16.90625 -50.890625 C 17.164062 -50.890625 17.390625 -50.796875 17.578125 -50.609375 C 17.765625 -50.421875 17.859375 -50.203125 17.859375 -49.953125 C 17.859375 -49.742188 17.78125 -49.550781 17.625 -49.375 C 17.46875 -49.195312 17.273438 -49.085938 17.046875 -49.046875 L 6.296875 -35.84375 L 10.53125 -35.84375 C 11.90625 -35.84375 13.070312 -35.609375 14.03125 -35.140625 C 14.988281 -34.671875 15.757812 -34.054688 16.34375 -33.296875 C 16.925781 -32.546875 17.34375 -31.679688 17.59375 -30.703125 C 17.851562 -29.722656 17.984375 -28.71875 17.984375 -27.6875 Z M 17.984375 -0.8125 "/></g></g></g><g fill="#b44c0c" fill-opacity="1"><g transform="translate(342.312468, 80.501503)"><g><path d="M 17.046875 -7.25 C 17.046875 -6.21875 16.914062 -5.222656 16.65625 -4.265625 C 16.40625 -3.304688 15.988281 -2.457031 15.40625 -1.71875 C 14.820312 -0.988281 14.050781 -0.40625 13.09375 0.03125 C 12.132812 0.476562 10.941406 0.703125 9.515625 0.703125 C 8.191406 0.703125 7.070312 0.503906 6.15625 0.109375 C 5.25 -0.285156 4.5 -0.816406 3.90625 -1.484375 C 3.3125 -2.148438 2.875 -2.925781 2.59375 -3.8125 C 2.3125 -4.695312 2.132812 -5.617188 2.0625 -6.578125 C 1.988281 -6.671875 1.9375 -6.773438 1.90625 -6.890625 C 1.875 -7.015625 1.859375 -7.132812 1.859375 -7.25 C 1.859375 -7.5 1.953125 -7.710938 2.140625 -7.890625 C 2.328125 -8.066406 2.546875 -8.15625 2.796875 -8.15625 C 3.054688 -8.15625 3.269531 -8.066406 3.4375 -7.890625 C 3.613281 -7.710938 3.703125 -7.5 3.703125 -7.25 C 3.703125 -7.132812 3.6875 -7.015625 3.65625 -6.890625 C 3.625 -6.773438 3.570312 -6.671875 3.5 -6.578125 C 3.519531 -5.785156 3.644531 -5.03125 3.875 -4.3125 C 4.113281 -3.601562 4.472656 -2.976562 4.953125 -2.4375 C 5.429688 -1.90625 6.039062 -1.484375 6.78125 -1.171875 C 7.53125 -0.859375 8.441406 -0.703125 9.515625 -0.703125 C 10.660156 -0.703125 11.625 -0.878906 12.40625 -1.234375 C 13.1875 -1.597656 13.8125 -2.085938 14.28125 -2.703125 C 14.75 -3.328125 15.085938 -4.03125 15.296875 -4.8125 C 15.503906 -5.59375 15.609375 -6.40625 15.609375 -7.25 L 15.609375 -16.203125 C 15.609375 -17.421875 15.367188 -18.582031 14.890625 -19.6875 C 14.410156 -20.800781 13.726562 -21.765625 12.84375 -22.578125 L 4.453125 -30.03125 C 3.867188 -30.539062 3.398438 -31.070312 3.046875 -31.625 C 2.691406 -32.175781 2.421875 -32.71875 2.234375 -33.25 C 2.046875 -33.789062 1.921875 -34.332031 1.859375 -34.875 C 1.804688 -35.425781 1.78125 -35.984375 1.78125 -36.546875 L 1.78125 -42.734375 C 1.78125 -43.742188 1.910156 -44.738281 2.171875 -45.71875 C 2.429688 -46.695312 2.851562 -47.570312 3.4375 -48.34375 C 4.019531 -49.113281 4.785156 -49.726562 5.734375 -50.1875 C 6.691406 -50.65625 7.882812 -50.890625 9.3125 -50.890625 C 10.644531 -50.890625 11.769531 -50.679688 12.6875 -50.265625 C 13.613281 -49.847656 14.367188 -49.285156 14.953125 -48.578125 C 15.535156 -47.878906 15.972656 -47.082031 16.265625 -46.1875 C 16.554688 -45.289062 16.722656 -44.351562 16.765625 -43.375 C 16.835938 -43.300781 16.890625 -43.207031 16.921875 -43.09375 C 16.960938 -42.976562 16.984375 -42.859375 16.984375 -42.734375 C 16.984375 -42.484375 16.894531 -42.265625 16.71875 -42.078125 C 16.539062 -41.890625 16.320312 -41.796875 16.0625 -41.796875 C 15.8125 -41.796875 15.59375 -41.890625 15.40625 -42.078125 C 15.21875 -42.265625 15.125 -42.484375 15.125 -42.734375 C 15.125 -42.972656 15.191406 -43.160156 15.328125 -43.296875 C 15.285156 -44.066406 15.148438 -44.816406 14.921875 -45.546875 C 14.703125 -46.285156 14.351562 -46.945312 13.875 -47.53125 C 13.394531 -48.113281 12.78125 -48.578125 12.03125 -48.921875 C 11.289062 -49.273438 10.382812 -49.453125 9.3125 -49.453125 C 8.164062 -49.453125 7.203125 -49.253906 6.421875 -48.859375 C 5.640625 -48.460938 5.015625 -47.945312 4.546875 -47.3125 C 4.078125 -46.6875 3.738281 -45.972656 3.53125 -45.171875 C 3.320312 -44.367188 3.21875 -43.554688 3.21875 -42.734375 L 3.21875 -36.546875 C 3.269531 -35.359375 3.453125 -34.300781 3.765625 -33.375 C 4.078125 -32.457031 4.640625 -31.632812 5.453125 -30.90625 L 13.890625 -23.453125 C 15.148438 -22.285156 15.988281 -21.082031 16.40625 -19.84375 C 16.832031 -18.601562 17.046875 -17.390625 17.046875 -16.203125 Z M 17.046875 -7.25 "/></g></g></g><g clip-path="url(#6c3e90ebf9)"><path fill="#ff9800" d="M 98.550781 88.992188 C 95.769531 86.054688 93.054688 84.023438 90.382812 82.824219 C 111.546875 65.117188 121.394531 42.6875 119.589844 34.417969 C 116.628906 53.765625 97.992188 76.023438 90.371094 82.820312 C 88.054688 81.78125 85.765625 81.375 83.492188 81.546875 C 89.878906 72.699219 95.964844 37.394531 92.28125 28.941406 C 95.234375 30.417969 98.316406 32.832031 103.519531 31.996094 C 97.074219 30.101562 94.652344 28.152344 89.210938 24.691406 C 94.691406 43.585938 87.300781 71.628906 83.125 81.582031 C 81.492188 81.753906 79.863281 82.222656 78.234375 82.980469 C 78.394531 69.898438 63.488281 33.550781 54.179688 27.707031 C 59.683594 27.773438 63.730469 26.644531 68.703125 25.121094 C 72.121094 31.023438 74.441406 38.054688 76.265625 45.019531 C 75.601562 37.40625 72.683594 29.8125 69.898438 22.734375 C 62.535156 24.890625 55.96875 25.484375 48.609375 25.519531 C 65.214844 40.003906 75.355469 70.601562 77.75 83.21875 C 76.691406 83.746094 75.636719 84.390625 74.578125 85.152344 C 69.503906 74.269531 37.375 49.074219 26.054688 48.761719 C 30.832031 46.023438 32.949219 43.394531 36.457031 39.554688 C 42.398438 42.90625 51.351562 50.964844 56.457031 56.039062 C 52.023438 49.820312 42.269531 41.179688 36.273438 36.496094 C 31.027344 42.089844 25.671875 45.9375 19.347656 49.707031 C 41.554688 53.851562 66.503906 76.03125 74.359375 85.3125 C 73.734375 85.769531 73.109375 86.265625 72.484375 86.800781 C 51.558594 80.425781 30.203125 78.785156 5.03125 87.796875 C 7.753906 83.75 8.746094 80.105469 8.8125 76.058594 C 20.617188 73.636719 34.347656 71.710938 50.398438 72.476562 C 38.488281 69.988281 21.855469 69.589844 7.023438 73.472656 C 5.78125 80.902344 3.292969 86.671875 0.457031 91.976562 C 28.09375 82.300781 51.679688 82.21875 73.480469 90.582031 C 82.5 83.554688 90.988281 83.488281 97.355469 90.78125 C 122.957031 89.144531 166.066406 88.089844 191.667969 90.183594 C 169.375 87.5 126.148438 87.433594 98.550781 88.992188 Z M 98.550781 88.992188 " fill-opacity="1" fill-rule="evenodd"/></g><g clip-path="url(#fc5ec983d9)"><g clip-path="url(#f227d59c64)"><g clip-path="url(#46a5d421ff)"><path fill="#ff9800" d="M 357.136719 25.703125 C 356.652344 25.28125 357.441406 23.605469 357.625 23.214844 C 358.746094 20.863281 360.082031 18.617188 361.5 16.425781 C 362.207031 15.324219 362.929688 14.246094 363.660156 13.164062 C 364.234375 12.308594 364.660156 11.617188 365.75 12.210938 C 366.855469 12.808594 367.140625 13.910156 366.464844 14.96875 C 365.902344 15.84375 358.261719 26.6875 357.136719 25.703125 Z M 357.136719 25.703125 " fill-opacity="1" fill-rule="nonzero"/></g></g></g><g clip-path="url(#bc0cd80393)"><g clip-path="url(#b1276e8303)"><g clip-path="url(#8783563eab)"><path fill="#ff9800" d="M 376.960938 38.316406 C 376.558594 37.40625 374.515625 37.035156 373.660156 36.757812 C 371.789062 36.148438 369.867188 35.710938 367.925781 35.402344 C 366.898438 35.238281 363.59375 34.328125 362.78125 35.257812 C 362.132812 36 365.699219 37.277344 366.253906 37.523438 C 367.746094 38.171875 369.257812 38.78125 370.765625 39.375 C 372.070312 39.886719 373.605469 40.8125 374.996094 40.933594 C 376.078125 41.035156 377.441406 39.394531 376.960938 38.316406 Z M 376.960938 38.316406 " fill-opacity="1" fill-rule="nonzero"/></g></g></g><g clip-path="url(#bb12176da1)"><g clip-path="url(#7a1c8f60f4)"><g clip-path="url(#1119803c5e)"><path fill="#ff9800" d="M 364.6875 29.429688 C 366.582031 28.8125 368.347656 27.917969 370.191406 27.175781 C 370.691406 26.96875 371.238281 26.871094 371.746094 26.679688 C 372.996094 26.207031 374.230469 25.726562 375.46875 25.234375 C 375.957031 25.039062 376.433594 24.785156 376.503906 24.199219 C 376.605469 23.390625 375.726562 22.027344 374.957031 21.757812 C 374.78125 21.699219 374.515625 21.722656 374.347656 21.808594 C 372.34375 22.921875 370.308594 24 368.363281 25.210938 C 366.617188 26.28125 364.5625 27.480469 363.144531 28.984375 C 362.058594 30.148438 364.144531 29.605469 364.6875 29.429688 Z M 364.6875 29.429688 " fill-opacity="1" fill-rule="nonzero"/></g></g></g><g clip-path="url(#d18e1bc34f)"><g clip-path="url(#7843bc2154)"><g clip-path="url(#f3494fbfeb)"><path fill="#ff9800" d="M 342.429688 31.5625 C 342.054688 32.082031 340.308594 31.457031 339.902344 31.316406 C 337.453125 30.421875 335.089844 29.308594 332.773438 28.109375 C 331.609375 27.511719 330.464844 26.894531 329.320312 26.273438 C 328.414062 25.78125 327.683594 25.429688 328.171875 24.28125 C 328.660156 23.125 329.726562 22.734375 330.84375 23.308594 C 331.773438 23.78125 343.300781 30.34375 342.429688 31.5625 Z M 342.429688 31.5625 " fill-opacity="1" fill-rule="nonzero"/></g></g></g><g clip-path="url(#3ec571c034)"><g clip-path="url(#d6b08a54ab)"><g clip-path="url(#4eec669fd1)"><path fill="#ff9800" d="M 353.078125 10.613281 C 352.210938 11.101562 352.039062 13.171875 351.84375 14.050781 C 351.414062 15.96875 351.164062 17.925781 351.042969 19.890625 C 350.980469 20.925781 350.390625 24.300781 351.394531 25.019531 C 352.199219 25.59375 353.128906 21.925781 353.316406 21.347656 C 353.820312 19.800781 354.28125 18.234375 354.726562 16.675781 C 355.109375 15.332031 355.886719 13.714844 355.871094 12.316406 C 355.867188 11.230469 354.105469 10.03125 353.078125 10.613281 Z M 353.078125 10.613281 " fill-opacity="1" fill-rule="nonzero"/></g></g></g><g clip-path="url(#812adc9f4e)"><g clip-path="url(#aceefc15c3)"><g clip-path="url(#76efbb6d6b)"><path fill="#ff9800" d="M 345.410156 23.6875 C 344.617188 21.859375 343.554688 20.1875 342.636719 18.421875 C 342.386719 17.945312 342.234375 17.414062 341.992188 16.921875 C 341.40625 15.726562 340.804688 14.542969 340.195312 13.355469 C 339.957031 12.890625 339.65625 12.441406 339.070312 12.425781 C 338.257812 12.40625 336.980469 13.410156 336.789062 14.203125 C 336.746094 14.382812 336.792969 14.644531 336.898438 14.800781 C 338.195312 16.691406 339.464844 18.613281 340.855469 20.433594 C 342.09375 22.066406 343.484375 23.996094 345.117188 25.261719 C 346.378906 26.234375 345.636719 24.207031 345.410156 23.6875 Z M 345.410156 23.6875 " fill-opacity="1" fill-rule="nonzero"/></g></g></g></svg>